<?xml version="1.0" standalone="no"?>
<!DOCTYPE svg PUBLIC "-//W3C//DTD SVG 20010904//EN"
 "http://www.w3.org/TR/2001/REC-SVG-20010904/DTD/svg10.dtd">
<svg version="1.0" xmlns="http://www.w3.org/2000/svg"
 width="376.000000pt" height="165.000000pt" viewBox="0 0 376.000000 165.000000"
 preserveAspectRatio="xMidYMid meet">

<g transform="translate(0.000000,165.000000) scale(0.100000,-0.100000)"
fill="#000000" stroke="none">
<path d="M770 1602 c0 -4 166 -173 368 -375 l368 -367 172 0 c95 0 172 3 172
7 0 4 -21 29 -47 56 l-48 48 -5 167 -5 167 -90 0 -90 0 -3 -62 c-2 -35 -6 -63
-10 -63 -4 0 -104 97 -222 215 l-215 215 -172 0 c-95 0 -173 -3 -173 -8z"/>
<path d="M2073 1288 c-4 -7 -9 -146 -11 -308 -2 -174 -7 -299 -13 -307 -6 -6
-28 -14 -50 -18 l-40 -7 3 -46 c3 -53 12 -58 85 -47 58 8 107 51 122 107 8 30
11 135 9 338 l-3 295 -47 3 c-30 2 -49 -2 -55 -10z"/>
<path d="M2329 1277 c-19 -12 -43 -40 -54 -62 -18 -37 -20 -60 -20 -290 0
-230 2 -253 20 -289 25 -49 61 -76 114 -86 85 -15 157 14 196 81 19 32 20 52
20 294 0 244 -1 262 -21 295 -34 58 -76 80 -154 80 -53 0 -74 -5 -101 -23z
m145 -93 c24 -23 24 -495 0 -518 -20 -21 -63 -20 -86 1 -16 15 -18 36 -18 256
0 210 2 243 17 259 20 22 66 24 87 2z"/>
<path d="M2695 1288 c-3 -7 -4 -175 -3 -373 l3 -360 50 0 50 0 5 120 c5 110
17 165 38 165 4 0 31 -63 61 -139 29 -77 60 -142 68 -145 28 -11 84 -6 89 8 3
7 -29 101 -71 208 l-76 194 75 153 c42 84 76 159 76 167 0 15 -75 20 -96 6 -7
-4 -40 -68 -74 -142 -35 -74 -68 -141 -74 -149 -8 -11 -12 26 -16 140 l-5 154
-48 3 c-32 2 -49 -1 -52 -10z"/>
<path d="M3135 1288 c-3 -7 -4 -175 -3 -373 l3 -360 50 0 50 0 0 370 0 370
-48 3 c-32 2 -49 -1 -52 -10z"/>
<path d="M3335 1287 c-3 -6 -4 -174 -3 -372 l3 -360 45 0 45 0 5 255 c4 212 7
251 17 230 7 -14 40 -126 73 -250 33 -123 66 -228 73 -232 16 -10 79 -10 95 0
9 7 12 88 10 373 l-3 364 -45 0 -45 0 -5 -210 -5 -210 -17 50 c-9 28 -35 120
-58 205 -23 85 -47 158 -53 162 -21 13 -127 9 -132 -5z"/>
<path d="M1131 419 l-374 -369 1471 0 1472 0 0 25 0 25 -1244 0 c-905 0 -1247
3 -1252 11 -4 7 130 148 327 345 l334 334 -180 -1 -180 0 -374 -370z"/>
<path d="M1971 406 c-8 -9 -11 -43 -9 -93 l3 -78 35 0 c32 0 35 3 37 30 l2 30
-12 -27 c-6 -16 -19 -28 -29 -28 -16 0 -18 10 -18 80 0 71 2 80 18 80 11 0 24
-10 30 -22 10 -22 11 -22 11 -2 2 39 -44 59 -68 30z"/>
<path d="M2081 406 c-8 -9 -11 -43 -9 -93 l3 -78 35 0 35 0 3 78 c3 82 -6 107
-38 107 -10 0 -23 -6 -29 -14z m49 -22 c21 -55 9 -144 -20 -144 -23 0 -30 20
-30 81 0 79 30 117 50 63z"/>
<path d="M2187 413 c-4 -3 -6 -47 -5 -97 l2 -91 6 70 6 70 17 -38 c10 -21 20
-51 24 -68 3 -16 12 -29 19 -29 11 0 14 20 14 90 0 99 -17 125 -22 33 l-3 -58
-19 55 c-20 60 -29 74 -39 63z"/>
<path d="M2306 404 c-24 -23 -20 -40 19 -83 19 -21 35 -46 35 -55 0 -25 -31
-32 -46 -11 -8 10 -17 16 -20 12 -12 -11 18 -37 42 -37 29 0 49 33 35 58 -5 9
-21 28 -35 41 -28 26 -33 50 -14 69 9 9 16 8 30 -5 20 -18 25 -4 6 15 -16 16
-33 15 -52 -4z"/>
<path d="M2412 408 c-12 -12 -17 -133 -6 -162 7 -17 59 -22 68 -7 14 22 16
127 4 151 -15 28 -47 37 -66 18z m52 -24 c3 -9 6 -37 6 -64 0 -61 -7 -80 -31
-80 -17 0 -19 8 -19 80 0 72 2 80 19 80 10 0 22 -7 25 -16z"/>
<path d="M2517 413 c-11 -11 -8 -183 3 -183 6 0 10 18 10 40 0 26 5 40 13 40
21 0 37 -22 37 -52 0 -15 5 -28 11 -28 8 0 9 12 3 38 -4 20 -6 58 -5 84 2 38
-2 49 -18 57 -22 12 -45 14 -54 4z m63 -47 c0 -26 -24 -51 -40 -41 -11 7 -14
68 -4 78 13 12 44 -14 44 -37z"/>
<path d="M2630 410 c0 -5 5 -10 10 -10 6 0 10 -35 10 -85 0 -50 4 -85 10 -85
6 0 10 34 10 83 0 51 5 88 12 95 9 9 5 12 -20 12 -18 0 -32 -4 -32 -10z"/>
<path d="M2886 413 c-3 -3 -6 -47 -6 -96 0 -50 3 -87 7 -83 4 3 6 23 5 44 -3
66 15 71 28 8 16 -80 29 -75 45 18 8 49 18 39 26 -27 5 -42 6 -34 8 46 0 61
-3 97 -9 97 -13 0 -15 -8 -30 -83 -6 -31 -15 -55 -19 -52 -5 2 -14 31 -20 64
-12 59 -22 77 -35 64z"/>
<path d="M3217 413 c-11 -11 -8 -183 3 -183 6 0 10 26 10 58 1 63 13 55 25
-16 9 -54 27 -50 38 9 13 68 27 71 27 5 0 -35 4 -55 10 -51 12 8 13 172 1 179
-14 9 -28 -15 -35 -59 -4 -22 -10 -48 -13 -59 -8 -27 -20 -3 -28 56 -7 45 -25
75 -38 61z"/>
<path d="M3423 402 c11 -12 17 -42 20 -97 l3 -80 2 79 c1 58 7 84 19 98 15 17
14 18 -22 18 -36 0 -37 -1 -22 -18z"/>
<path d="M3517 413 c-4 -3 -7 -46 -7 -95 l0 -88 38 1 c30 2 32 3 10 6 -24 4
-28 9 -28 39 0 27 5 37 23 44 l22 9 -22 0 c-19 1 -23 7 -23 36 0 28 4 35 19
35 11 0 23 5 26 10 7 11 -47 14 -58 3z"/>
<path d="M3617 413 c-4 -3 -7 -46 -7 -95 l0 -88 34 0 c48 0 57 17 54 101 -3
65 -5 74 -23 77 -14 2 -16 1 -7 -6 9 -6 12 -31 10 -83 -3 -68 -5 -74 -25 -77
-22 -3 -23 -1 -23 77 0 47 4 81 10 81 6 0 10 5 10 10 0 11 -23 14 -33 3z"/>
<path d="M2734 320 c0 -52 1 -74 3 -47 2 26 2 68 0 95 -2 26 -3 4 -3 -48z"/>
<path d="M2770 333 c0 -91 7 -106 46 -101 l29 3 1 90 1 90 -6 -85 c-5 -76 -8
-85 -26 -85 -18 0 -20 8 -23 83 -4 104 -22 108 -22 5z"/>
<path d="M3070 320 l0 -90 38 1 c32 1 33 2 12 8 -24 6 -25 11 -28 89 -4 112
-22 105 -22 -8z"/>
<path d="M3170 320 c0 -53 4 -90 10 -90 6 0 10 37 10 90 0 53 -4 90 -10 90 -6
0 -10 -37 -10 -90z"/>
<path d="M3360 320 c0 -53 4 -90 10 -90 6 0 10 37 10 90 0 53 -4 90 -10 90 -6
0 -10 -37 -10 -90z"/>
</g>
</svg>
